<?xml version="1.0" encoding="utf-8"?>
<!-- Generator: Adobe Illustrator 16.0.0, SVG Export Plug-In . SVG Version: 6.00 Build 0)  -->
<!DOCTYPE svg PUBLIC "-//W3C//DTD SVG 1.1//EN" "http://www.w3.org/Graphics/SVG/1.1/DTD/svg11.dtd">
<svg version="1.1" id="cart" xmlns="http://www.w3.org/2000/svg" xmlns:xlink="http://www.w3.org/1999/xlink" x="0px" y="0px"
	 width="535.5px" height="455.939px" viewBox="0 0 535.5 455.939" enable-background="new 0 0 535.5 455.939" xml:space="preserve">
<path id="cart_1_" fill="#C8192E" d="M149.94,128.519l-45.9-128.52H0v52.02h67.32l107.1,306.001H459l76.5-229.501H149.94
	L149.94,128.519z M425.34,305.998H214.2l-45.9-128.521h299.88L425.34,305.998z M250.92,419.219c0,21.42-18.359,36.721-36.72,36.721
	s-36.72-18.36-36.72-36.721s12.24-36.721,33.66-36.721C232.561,382.498,250.92,400.859,250.92,419.219z M452.879,419.219
	c0,21.42-18.359,36.721-36.719,36.721c-21.42,0-36.721-18.36-36.721-36.721s18.358-36.721,36.721-36.721
	C437.58,382.498,452.879,400.859,452.879,419.219z"/>
</svg>
