<?xml version="1.0" encoding="utf-8"?>
<!-- Generator: Adobe Illustrator 16.0.0, SVG Export Plug-In . SVG Version: 6.00 Build 0)  -->
<!DOCTYPE svg PUBLIC "-//W3C//DTD SVG 1.1//EN" "http://www.w3.org/Graphics/SVG/1.1/DTD/svg11.dtd">
<svg version="1.1" id="cart" xmlns="http://www.w3.org/2000/svg" xmlns:xlink="http://www.w3.org/1999/xlink" x="0px" y="0px"
	 width="535.5px" height="455.94px" viewBox="0 0 535.5 455.94" enable-background="new 0 0 535.5 455.94" xml:space="preserve">
<path id="cart_1_" fill="#D2D2D2" d="M149.94,128.52L104.04,0H0v52.02h67.32l107.1,306H459l76.5-229.5H149.94z M425.34,306H214.2
	l-45.9-128.52h299.88L425.34,306z M250.92,419.22c0,21.42-18.36,36.721-36.72,36.721s-36.72-18.36-36.72-36.721
	c0-18.359,12.24-36.72,33.66-36.72C232.56,382.5,250.92,400.86,250.92,419.22z M452.879,419.22c0,21.42-18.359,36.721-36.719,36.721
	c-21.42,0-36.721-18.36-36.721-36.721c0-18.359,18.359-36.72,36.721-36.72C437.58,382.5,452.879,400.86,452.879,419.22z"/>
</svg>
