<?xml version="1.0" standalone="no"?><!DOCTYPE svg PUBLIC "-//W3C//DTD SVG 1.1//EN" "http://www.w3.org/Graphics/SVG/1.1/DTD/svg11.dtd"><svg t="1525680525138" class="icon" style="" viewBox="0 0 1024 1024" version="1.1" xmlns="http://www.w3.org/2000/svg" p-id="1345" xmlns:xlink="http://www.w3.org/1999/xlink" width="48" height="48"><defs><style type="text/css"></style></defs><path d="M770.631 349.252c0 40.357-6.11 73.494-18.326 99.404l-202.142 429.834c-5.926 12.218-14.717 21.84-26.379 28.877-11.663 7.028-24.156 10.55-37.485 10.55s-25.824-3.521-37.485-10.55c-11.662-7.037-20.269-16.66-25.824-28.877l-202.699-429.831c-12.218-25.908-18.326-59.049-18.326-99.404 0-78.485 27.767-145.498 83.301-201.033 55.534-55.535 122.539-83.301 201.033-83.301 78.485 0 145.498 27.766 201.033 83.301 55.535 55.534 83.301 122.548 83.301 201.031zM586.816 449.77c27.766-27.767 41.649-61.269 41.649-100.515 0-39.237-13.883-72.749-41.649-100.517-27.767-27.766-61.28-41.65-100.517-41.65-39.247 0-72.749 13.883-100.517 41.65-27.767 27.767-41.65 61.28-41.65 100.517 0 39.247 13.883 72.749 41.65 100.515 27.766 27.767 61.27 41.65 100.517 41.65 39.237 0 72.749-13.883 100.517-41.65z" p-id="1346" fill="#C9192E"></path></svg>