<?xml version="1.0" encoding="utf-8"?>
<!-- Generator: Adobe Illustrator 16.0.0, SVG Export Plug-In . SVG Version: 6.00 Build 0)  -->
<!DOCTYPE svg PUBLIC "-//W3C//DTD SVG 1.1//EN" "http://www.w3.org/Graphics/SVG/1.1/DTD/svg11.dtd">
<svg version="1.1" id="account" xmlns="http://www.w3.org/2000/svg" xmlns:xlink="http://www.w3.org/1999/xlink" x="0px" y="0px"
	 width="434.52px" height="425.34px" viewBox="0 0 434.52 425.34" enable-background="new 0 0 434.52 425.34" xml:space="preserve">
<path id="personal" fill="#D2D2D2" d="M0,425.34h434.52c0-6.12,0-9.18,0-15.3v-3.061l0,0c0-33.659-6.12-58.141-42.84-79.561
	c-45.9-30.6-97.92-55.08-97.92-55.08c-6.12-3.06-12.24-15.3-15.3-27.54c0-3.06,0-6.119,0-12.24
	c48.96-42.839,39.78-134.64,39.78-134.64c-6.12-97.92-91.802-97.92-100.98-97.92c-9.18,0-94.86,0-97.92,100.979
	c0,0-9.18,91.801,39.779,134.641c0,3.061,0,6.12,0,12.24c-3.06,12.239-6.119,24.479-15.299,27.54c0,0-52.021,24.479-97.92,55.079
	c-33.66,21.421-42.84,45.899-42.84,79.561l0,0v3.061C0,416.16,0,422.28,0,425.34L0,425.34L0,425.34z"/>
</svg>
