<?xml version="1.0" encoding="utf-8"?>
<!-- Generator: Adobe Illustrator 16.0.0, SVG Export Plug-In . SVG Version: 6.00 Build 0)  -->
<!DOCTYPE svg PUBLIC "-//W3C//DTD SVG 1.1//EN" "http://www.w3.org/Graphics/SVG/1.1/DTD/svg11.dtd">
<svg version="1.1" id="account" xmlns="http://www.w3.org/2000/svg" xmlns:xlink="http://www.w3.org/1999/xlink" x="0px" y="0px"
	 width="434.52px" height="425.34px" viewBox="0 0 434.52 425.34" enable-background="new 0 0 434.52 425.34" xml:space="preserve">
<path id="personal" fill="#C8192E" d="M0,425.34h434.52c0-6.119,0-9.18,0-15.3v-3.061l0,0c0-33.659-6.12-58.141-42.84-79.561
	c-45.9-30.6-97.92-55.08-97.92-55.08c-6.12-3.06-12.24-15.3-15.3-27.54c0-3.06,0-6.119,0-12.238
	C327.42,189.72,318.24,97.92,318.24,97.92C312.12,0,226.438,0,217.26,0c-9.18,0-94.86,0-97.92,100.98c0,0-9.18,91.799,39.779,134.64
	c0,3.061,0,6.12,0,12.24C156.06,260.1,153,272.339,143.82,275.4c0,0-52.021,24.479-97.92,55.079
	c-33.66,21.42-42.84,45.899-42.84,79.561l0,0v3.061C0,416.16,0,422.28,0,425.34L0,425.34L0,425.34z"/>
</svg>
