<?xml version="1.0" encoding="utf-8"?>
<!-- Generator: Adobe Illustrator 16.0.0, SVG Export Plug-In . SVG Version: 6.00 Build 0)  -->
<!DOCTYPE svg PUBLIC "-//W3C//DTD SVG 1.1//EN" "http://www.w3.org/Graphics/SVG/1.1/DTD/svg11.dtd">
<svg version="1.1" id="search" xmlns="http://www.w3.org/2000/svg" xmlns:xlink="http://www.w3.org/1999/xlink" x="0px" y="0px"
	 width="409.531px" height="407.49px" viewBox="0 0 409.531 407.49" enable-background="new 0 0 409.531 407.49"
	 xml:space="preserve">
<path id="search_icon__x23_64686B_2_" fill="#64686B" d="M308.551,53.55c-71.4-71.4-185.641-71.4-255,0
	c-71.4,71.4-71.4,185.64,0,255c63.24,63.24,159.12,69.36,230.52,20.4l69.359,69.358c12.24,12.24,32.641,12.24,46.92,0
	c12.24-12.24,12.24-32.64,0-46.92l-69.359-69.358C377.911,212.67,371.792,116.79,308.551,53.55z M263.67,263.67
	c-46.92,46.92-120.359,46.92-167.28,0c-46.92-46.92-46.92-120.36,0-167.28c46.92-46.92,120.36-46.92,167.28,0
	S310.59,218.788,263.67,263.67z"/>
</svg>
