<?xml version="1.0" encoding="utf-8"?>
<!-- Generator: Adobe Illustrator 16.0.0, SVG Export Plug-In . SVG Version: 6.00 Build 0)  -->
<!DOCTYPE svg PUBLIC "-//W3C//DTD SVG 1.1//EN" "http://www.w3.org/Graphics/SVG/1.1/DTD/svg11.dtd">
<svg version="1.1" id="wishlist" xmlns="http://www.w3.org/2000/svg" xmlns:xlink="http://www.w3.org/1999/xlink" x="0px" y="0px"
	 width="422.281px" height="395.621px" viewBox="0 0 422.281 395.621" enable-background="new 0 0 422.281 395.621"
	 xml:space="preserve">
<path id="wishtlist" fill="#D2D2D2" d="M192.782,388.736L192.782,388.736c12.24,9.18,27.539,9.18,36.721,0l0,0
	c30.6-27.54,192.777-165.24,192.777-260.101c0-70.38-58.139-128.52-128.52-128.52c-30.602,0-61.199,12.24-82.619,30.6
	c-21.42-18.359-52.021-30.6-82.621-30.6C58.142-2.944,0.001,55.196,0.001,125.576C0.001,223.496,159.122,361.196,192.782,388.736z
	 M128.522,58.256c24.479,0,45.899,12.24,61.199,33.66c12.24,15.3,36.721,15.3,45.9,0c12.238-21.42,36.721-33.66,61.199-33.66
	c36.721,0,67.32,30.601,67.32,70.38c0,45.9-82.621,137.7-153,198.9c-67.32-61.2-153-153-153-198.9
	C58.142,88.856,88.742,58.256,128.522,58.256z"/>
</svg>
